<svg width="240" height="1183" viewBox="0 0 240 1183" fill="none" xmlns="http://www.w3.org/2000/svg">
<path d="M-373.734 1204.34L-373.226 1204.42L-257.354 1021.05L-293.173 1217.26L-289.869 1217.79L-253.608 1017.73L-197.742 1118.09L-264.963 1221.78L-260.388 1222.51L-200.632 1130.25L-228.367 1227.65L-224.808 1228.22L-195.849 1126.66L-180.589 1235.31L-177.539 1235.8L-192.82 1127.58L-125.186 1244.2L-120.103 1245.01L-193.613 1117.45L-149.522 866.42L-103.838 1247.62L-100.534 1248.15L-147.116 858.971L-15.9009 873.05L-91.1314 1249.66L-88.0818 1250.15L-13.5257 876.912L54.3476 1116.3L-68.7672 1253.24L-62.9219 1254.18L54.0151 1123.21L33.6511 1269.67L36.9549 1270.2L56.3278 1128.37L78.1255 1276.8L81.1751 1277.29L58.4185 1122.18L250.674 1267.48L234.93 1301.95L238.487 1302.52L250.237 1276.55L246.874 1303.86L250.432 1304.43L253.479 1278.37L257.294 1305.53L260.598 1306.06L255.611 1271.31L255.865 1271.35L255.098 1266.01L291.706 1122.59L292.173 1123.54L292.339 1120.08L383.516 1093.35L346.751 1319.88L350.055 1320.41L385.429 1101.5L413.844 1330.64L417.147 1331.17L387.836 1094.05L474.765 1144.98L472.81 1137.71L387.598 1088.35L418.699 942.309L416.956 935.936L385.857 1081.98L331.133 819.456L381.604 808.4L380.329 802.973L331.403 813.841L352.816 704.113L350.862 696.836L328.815 809.073L328.39 807.265L328.141 812.448L205.093 628.629L328.598 616.663L327.089 610.762L202.547 622.998L212.474 432.648L308.329 542.902L305.249 532.398L215.478 428.776L269.726 403.093L268.197 397.623L213.439 423.226L237.858 288.3L236.116 281.928L210.96 421.524L109.559 197.652L189.461 112.536L187.911 107.499L108.834 191.442L107.48 192.966L75.1123 109.867L73.3589 114.373L104.114 193.732L41.73 191.563L39.4059 197.282L101.282 199.371L-11.0693 320.195L-16.0132 332.46L105.498 202.223L83.4496 660.48L-34.2682 376.54L-36.0216 381.046L80.7212 663.959L-95.1928 604.846L-58.6501 436.175L-66.1927 454.55L-98.1592 602.63L-117.535 579.501L-119.287 584.007L-99.9128 607.136L-164.228 693.011L-170.63 708.958L-100.562 615.301L-148.504 845.256L-148.759 845.215L-150.361 851.922L-224.02 839.239L-226.344 844.96L-153.215 857.993L-253.089 1006.93L-259.136 925.009L-262.009 931.511L-256.03 1009.51L-293.363 1008.31L-295.962 1014.42L-258.354 1015.23L-365.6 1184.31L-373.734 1204.34ZM56.5676 1112.74L-11.0722 873.823L182.336 936.613L56.5676 1112.74ZM253.714 1257.52L252.863 1253.9L252.759 1256.06L189.82 946.083L289.352 1118.3L253.714 1257.52ZM328.98 826.945L383.787 1087.74L293.413 1113.72L328.98 826.945ZM290.151 1112.33L188.793 935.471L326.921 821.827L290.151 1112.33ZM202.131 631.636L325.879 816.873L187.751 930.517L202.131 631.636ZM250.752 1260.52L59.726 1116.29L185.515 939.734L250.752 1260.52ZM184.847 927.005L87.3128 670.675L199.124 630.283L184.847 927.005ZM199.685 618.622L199.435 623.804L89.6577 664.523L209.513 435.654L199.685 618.622ZM108.232 203.967L208.445 425.907L207.174 425.704L208.595 428.108L86.2659 660.495L108.232 203.967ZM84.3719 673.249L182.627 930.566L-10.8021 868.21L84.3719 673.249ZM81.4261 670.602L-13.7478 865.561L-94.2337 611.529L81.4261 670.602ZM-97.133 613.24L-16.8807 866.8L-146.804 852.493L-97.133 613.24ZM-152.193 863.38L-196.476 1113.07L-251.813 1012.36L-152.193 863.38ZM158.485 0.498427L120.094 0L117.749 6.15269L160.227 6.87138L158.485 0.498427ZM507.483 1263.39L505.741 1257.02L481.699 1341.52L485.003 1342.05L507.483 1263.39Z" fill="url(#paint0_linear_1_845)" fill-opacity="0.7"/>
<defs>
<linearGradient id="paint0_linear_1_845" x1="-28.5515" y1="348.053" x2="349.153" y2="1582.43" gradientUnits="userSpaceOnUse">
<stop stop-color="#0E6E6C" stop-opacity="0"/>
<stop offset="1" stop-color="#0E6E6C"/>
</linearGradient>
</defs>
</svg>
