<svg width="309" height="110" viewBox="0 0 309 110" fill="none" xmlns="http://www.w3.org/2000/svg">
<path d="M0 243.028L0.246098 243.05L56.3348 194.431L38.9968 246.454L40.5961 246.594L58.1478 193.551L85.1908 220.161L52.6518 247.653L54.8658 247.848L83.7918 223.385L70.3668 249.209L72.0888 249.36L86.1068 222.434L93.4938 251.241L94.9698 251.37L87.5728 222.678L120.312 253.596L122.773 253.813L87.1898 219.99L108.532 153.432L130.646 254.504L132.245 254.645L109.697 151.458L173.213 155.19L136.797 255.044L138.273 255.174L174.362 156.215L207.217 219.686L147.622 255.995L150.452 256.244L207.056 221.518L197.199 260.35L198.798 260.491L208.175 222.886L218.727 262.241L220.203 262.371L209.187 221.244L302.25 259.769L294.629 268.908L296.351 269.06L302.039 262.174L300.411 269.416L302.133 269.568L303.608 262.658L305.455 269.859L307.054 270L304.64 260.787L304.763 260.797L304.392 259.38L322.112 221.354L322.338 221.605L322.419 220.689L366.554 213.602L348.757 273.663L350.356 273.804L367.48 215.761L381.234 276.516L382.833 276.656L368.645 213.786L410.723 227.291L409.777 225.362L368.53 212.276L383.584 173.554L382.741 171.864L367.686 210.586L341.197 140.981L365.628 138.049L365.011 136.61L341.328 139.492L351.693 110.398L350.747 108.469L340.075 138.228L339.869 137.748L339.749 139.122L280.187 90.3844L339.97 87.2115L339.239 85.6472L278.954 88.8914L283.759 38.4218L330.159 67.6548L328.668 64.8696L285.213 37.3955L311.473 30.5854L310.732 29.1356L284.227 35.924L296.047 0.149452L295.203 -1.54022L283.027 35.4724L233.943 -23.8853L272.62 -46.453L271.869 -47.7884L233.592 -25.5317L232.936 -25.1277L217.268 -47.1607L216.419 -45.9659L231.307 -24.9246L201.109 -25.5L199.984 -23.9832L229.936 -23.4294L175.551 8.60622L173.158 11.858L231.977 -22.6732L221.304 98.8294L164.322 23.5451L163.473 24.74L219.983 99.752L134.831 84.0788L152.52 39.3569L148.868 44.2292L133.395 83.491L124.016 77.3587L123.167 78.5536L132.546 84.6859L101.414 107.455L98.3148 111.683L132.232 86.8509L109.025 147.821L108.902 147.81L108.126 149.589L72.4708 146.226L71.3458 147.743L106.745 151.198L58.3998 190.688L55.4728 168.967L54.0818 170.691L56.9758 191.371L38.9046 191.053L37.6465 192.674L55.8508 192.888L3.9375 237.719L0 243.028ZM208.292 218.742L175.55 155.396L269.171 172.044L208.292 218.742ZM303.722 257.128L303.31 256.169L303.26 256.742L272.793 174.554L320.973 220.215L303.722 257.128ZM340.155 142.966L366.684 212.114L322.939 219.003L340.155 142.966ZM321.359 218.634L272.296 171.741L339.158 141.609L321.359 218.634ZM278.753 91.1817L338.654 140.296L271.792 170.427L278.753 91.1817ZM302.288 257.926L209.82 219.684L270.71 172.871L302.288 257.926ZM270.386 169.496L223.174 101.533L277.297 90.823L270.386 169.496ZM277.568 87.731L277.448 89.1052L224.309 99.9012L282.326 39.219L277.568 87.731ZM233.3 -22.2107L281.809 36.6348L281.194 36.5808L281.882 37.2182L222.667 98.8338L233.3 -22.2107ZM221.75 102.215L269.311 170.44L175.681 153.907L221.75 102.215ZM220.325 101.513L174.255 153.205L135.295 85.8505L220.325 101.513ZM133.891 86.3043L172.738 153.533L109.848 149.74L133.891 86.3043ZM107.239 152.627L85.8038 218.83L59.0168 192.128L107.239 152.627ZM257.626 -76.1587L239.042 -76.2909L237.907 -74.6595L258.469 -74.469L257.626 -76.1587ZM426.561 258.687L425.717 256.997L414.08 279.401L415.679 279.541L426.561 258.687Z" fill="url(#paint0_linear_7_10935)"/>
<defs>
<linearGradient id="paint0_linear_7_10935" x1="167.089" y1="15.9922" x2="225.44" y2="364.138" gradientUnits="userSpaceOnUse">
<stop stop-color="#0E6E6C" stop-opacity="0"/>
<stop offset="1" stop-color="#0E6E6C"/>
</linearGradient>
</defs>
</svg>
